<svg xmlns="http://www.w3.org/2000/svg" viewBox="0 0 180 180">
  <defs>
    <linearGradient id="bg" x1="0" y1="0" x2="1" y2="1">
      <stop offset="0" stop-color="#2a3055"/>
      <stop offset="1" stop-color="#171a2b"/>
    </linearGradient>
  </defs>
  <rect width="180" height="180" rx="40" fill="url(#bg)"/>
  <rect x="14" y="14" width="152" height="152" rx="30" fill="none" stroke="#8d6e63" stroke-width="8"/>
  <!-- カラー砂の粒 -->
  <g stroke-linecap="round" stroke-width="5">
    <line x1="38" y1="132" x2="44" y2="128" stroke="#4FC3F7"/>
    <line x1="56" y1="140" x2="62" y2="136" stroke="#F48FB1"/>
    <line x1="76" y1="145" x2="82" y2="143" stroke="#FFD54F"/>
    <line x1="98" y1="144" x2="104" y2="141" stroke="#AED581"/>
    <line x1="118" y1="138" x2="124" y2="133" stroke="#B39DDB"/>
    <line x1="138" y1="128" x2="142" y2="123" stroke="#4FC3F7"/>
    <line x1="48" y1="118" x2="54" y2="112" stroke="#FFD54F"/>
    <line x1="70" y1="126" x2="75" y2="120" stroke="#B39DDB"/>
    <line x1="108" y1="126" x2="113" y2="120" stroke="#F48FB1"/>
    <line x1="128" y1="114" x2="133" y2="109" stroke="#AED581"/>
  </g>
  <!-- U字磁石 -->
  <g transform="translate(90,74)">
    <path d="M-30 -34 h20 v30 a10 10 0 0 0 20 0 v-30 h20 v30 a30 30 0 0 1 -60 0 Z"
          fill="#ef5350" stroke="#c62828" stroke-width="4" stroke-linejoin="round"/>
    <rect x="-30" y="-36" width="20" height="13" rx="2" fill="#f5f7fb" stroke="#c62828" stroke-width="4"/>
    <rect x="10" y="-36" width="20" height="13" rx="2" fill="#f5f7fb" stroke="#c62828" stroke-width="4"/>
    <circle cx="-9" cy="-6" r="3" fill="#3a2020"/>
    <circle cx="9" cy="-6" r="3" fill="#3a2020"/>
    <path d="M-6 2 a7 7 0 0 0 12 0" fill="none" stroke="#3a2020" stroke-width="2.6" stroke-linecap="round"/>
  </g>
</svg>
